<svg xmlns="http://www.w3.org/2000/svg" width="400" height="800" viewBox="0 0 400 800">
  <!-- Background gradient -->
  <defs>
    <linearGradient id="bgGradient" x1="0" y1="0" x2="0" y2="1">
      <stop offset="0%" stop-color="#020010"/>
      <stop offset="100%" stop-color="#050520"/>
    </linearGradient>

    <!-- Nebula cloud -->
    <radialGradient id="nebulaPurple" cx="30%" cy="40%" r="50%">
      <stop offset="0%" stop-color="#7a4ccf" stop-opacity="0.4"/>
      <stop offset="100%" stop-color="transparent"/>
    </radialGradient>
    <radialGradient id="nebulaBlue" cx="70%" cy="60%" r="50%">
      <stop offset="0%" stop-color="#4ccfff" stop-opacity="0.3"/>
      <stop offset="100%" stop-color="transparent"/>
    </radialGradient>
  </defs>

  <!-- Main background -->
  <rect width="400" height="800" fill="url(#bgGradient)"/>
  <rect width="400" height="800" fill="url(#nebulaPurple)"/>
  <rect width="400" height="800" fill="url(#nebulaBlue)"/>

  <!-- Large glowing stars -->
  <g>
    <circle cx="50" cy="120" r="2" fill="white" opacity="0.9"/>
    <circle cx="320" cy="80" r="2.5" fill="white" opacity="0.9"/>
    <circle cx="200" cy="300" r="2" fill="white" opacity="0.9"/>
    <circle cx="80" cy="650" r="2" fill="white" opacity="0.9"/>
    <circle cx="350" cy="720" r="2.2" fill="white" opacity="0.9"/>
  </g>

  <!-- Smaller stars for depth -->
  <g fill="white" opacity="0.7">
    <circle cx="100" cy="50" r="1"/>
    <circle cx="180" cy="150" r="1.2"/>
    <circle cx="300" cy="250" r="0.8"/>
    <circle cx="250" cy="500" r="1"/>
    <circle cx="120" cy="400" r="0.8"/>
    <circle cx="280" cy="600" r="1"/>
    <circle cx="60" cy="750" r="1"/>
  </g>

  <!-- Shooting star -->
  <line x1="320" y1="200" x2="350" y2="170" stroke="white" stroke-width="1.5" opacity="0.8"/>
  <line x1="150" y1="500" x2="180" y2="470" stroke="white" stroke-width="1.5" opacity="0.8"/>
</svg>
